<?xml version="1.0" encoding="UTF-8" standalone="no"?>
<!-- Created with Inkscape (http://www.inkscape.org/) -->

<svg
   xmlns:dc="http://purl.org/dc/elements/1.1/"
   xmlns:cc="http://creativecommons.org/ns#"
   xmlns:rdf="http://www.w3.org/1999/02/22-rdf-syntax-ns#"
   xmlns:svg="http://www.w3.org/2000/svg"
   xmlns="http://www.w3.org/2000/svg"
   xmlns:sodipodi="http://sodipodi.sourceforge.net/DTD/sodipodi-0.dtd"
   xmlns:inkscape="http://www.inkscape.org/namespaces/inkscape"
   width="248.68382"
   height="91.430717"
   viewBox="0 0 65.797597 24.191044"
   version="1.1"
   id="svg5447"
   inkscape:version="0.92.3 (2405546, 2018-03-11)"
   sodipodi:docname="logo-black.svg">
  <defs
     id="defs5441" />
  <sodipodi:namedview
     id="base"
     pagecolor="#000000"
     bordercolor="#666666"
     borderopacity="1.0"
     inkscape:pageopacity="1"
     inkscape:pageshadow="2"
     inkscape:zoom="0.49497475"
     inkscape:cx="-86.590531"
     inkscape:cy="-361.97794"
     inkscape:document-units="mm"
     inkscape:current-layer="layer1"
     showgrid="false"
     fit-margin-top="1"
     fit-margin-left="1"
     fit-margin-right="1"
     fit-margin-bottom="1"
     inkscape:window-width="1144"
     inkscape:window-height="1046"
     inkscape:window-x="0"
     inkscape:window-y="26"
     inkscape:window-maximized="0"
     units="px" />
  <metadata
     id="metadata5444">
    <rdf:RDF>
      <cc:Work
         rdf:about="">
        <dc:format>image/svg+xml</dc:format>
        <dc:type
           rdf:resource="http://purl.org/dc/dcmitype/StillImage" />
        <dc:title></dc:title>
      </cc:Work>
    </rdf:RDF>
  </metadata>
  <g
     inkscape:label="Layer 1"
     inkscape:groupmode="layer"
     id="layer1"
     transform="translate(-18.158943,-80.77349)">
    <g
       aria-label="lager"
       style="font-style:normal;font-variant:normal;font-weight:900;font-stretch:normal;font-size:1.64064527px;line-height:0%;font-family:'Source Sans Pro';-inkscape-font-specification:'Source Sans Pro Heavy';text-align:center;letter-spacing:0px;word-spacing:0px;text-anchor:middle;fill:#ffffff;fill-opacity:1;stroke:#ffffff;stroke-width:0.13672043px;stroke-linecap:butt;stroke-linejoin:miter;stroke-opacity:1"
       id="text5338">
      <path
         d="m 24.428199,81.115084 h 3.587038 v 14.812287 c 0,0.374158 0.06507,0.634442 0.195213,0.780852 0.146409,0.14641 0.292819,0.219615 0.439229,0.219615 h 0.195213 c 0.06507,0 0.146412,-0.01627 0.244016,-0.0488 l 0.439229,2.659777 c -0.195213,0.08134 -0.447363,0.14641 -0.75645,0.195213 -0.292819,0.06507 -0.642576,0.09761 -1.04927,0.09761 -0.618174,0 -1.138742,-0.09761 -1.561703,-0.292819 -0.422961,-0.195213 -0.764584,-0.463631 -1.024868,-0.805254 -0.244017,-0.35789 -0.422962,-0.780851 -0.536836,-1.268884 -0.113874,-0.5043 -0.170811,-1.065537 -0.170811,-1.683712 z"
         style="font-style:normal;font-variant:normal;font-weight:bold;font-stretch:normal;font-size:24.40161896px;line-height:1.25;font-family:'Source Sans Pro';-inkscape-font-specification:'Source Sans Pro Bold';text-align:center;text-anchor:middle;stroke-width:0.13672043px;stroke:#ffffff;fill:#ffffff"
         id="path832"
         inkscape:connector-curvature="0"
         sodipodi:nodetypes="ccscsscccscccsc" />
      <path
         d="m 30.947244,96.171387 q 0,-1.903326 1.610507,-2.976997 1.610507,-1.073671 5.197545,-1.439696 -0.0488,-0.805253 -0.488033,-1.268884 -0.439229,-0.488032 -1.415294,-0.488032 -0.780851,0 -1.561703,0.292819 -0.780852,0.29282 -1.65931,0.805254 l -1.268885,-2.366957 q 1.171278,-0.707647 2.440162,-1.146877 1.293286,-0.439229 2.732982,-0.439229 2.342555,0 3.562636,1.342089 1.244483,1.317688 1.244483,4.123874 v 6.93006 h -2.928195 l -0.268417,-1.244483 h -0.07321 q -0.780852,0.683245 -1.65931,1.122475 -0.854057,0.414827 -1.878925,0.414827 -0.829655,0 -1.488499,-0.292819 -0.658844,-0.268418 -1.122474,-0.75645 -0.463631,-0.512434 -0.732049,-1.171278 -0.244016,-0.658844 -0.244016,-1.439696 z m 3.416227,-0.268417 q 0,0.585638 0.366024,0.878458 0.390426,0.268418 1.024868,0.268418 0.634442,0 1.073671,-0.268418 0.439229,-0.268418 0.927262,-0.75645 v -2.122941 q -1.927728,0.268418 -2.659777,0.780852 -0.732048,0.512434 -0.732048,1.220081 z"
         style="font-style:normal;font-variant:normal;font-weight:bold;font-stretch:normal;font-size:24.40161896px;line-height:1.25;font-family:'Source Sans Pro';-inkscape-font-specification:'Source Sans Pro Bold';text-align:center;text-anchor:middle;stroke-width:0.13672043px;stroke:#ffffff;fill:#ffffff"
         id="path834"
         inkscape:connector-curvature="0" />
      <path
         d="m 46.593638,101.05171 q 0,0.68325 0.732049,1.02487 0.732048,0.36602 1.952129,0.36602 1.220081,0 2.000933,-0.43923 0.780852,-0.41482 0.780852,-1.04927 0,-0.56123 -0.488033,-0.75645 -0.46363,-0.19521 -1.36649,-0.19521 h -1.244483 q -0.634442,0 -1.024868,-0.0488 -0.390426,-0.0244 -0.683245,-0.09761 -0.658844,0.58564 -0.658844,1.19568 z m -2.952596,0.56124 q 0,-1.4641 1.732515,-2.440164 v -0.09761 q -0.488032,-0.317221 -0.805253,-0.805253 -0.317221,-0.488033 -0.317221,-1.244483 0,-0.658844 0.390425,-1.244483 0.390426,-0.61004 0.976065,-1.024868 v -0.09761 q -0.634442,-0.439229 -1.146876,-1.244483 -0.488032,-0.829655 -0.488032,-1.903326 0,-1.098073 0.414827,-1.903326 0.414828,-0.829655 1.098073,-1.366491 0.707647,-0.561237 1.610507,-0.829655 0.90286,-0.268418 1.878925,-0.268418 1.073671,0 1.878924,0.29282 h 4.416693 v 2.610973 h -1.927728 q 0.170812,0.268418 0.268418,0.683245 0.122008,0.414828 0.122008,0.90286 0,1.04927 -0.366024,1.830122 -0.366024,0.75645 -1.024868,1.268884 -0.634442,0.488032 -1.5129,0.732048 -0.854057,0.244017 -1.854523,0.244017 -0.707647,0 -1.464097,-0.244017 -0.244017,0.195213 -0.341623,0.390426 -0.09761,0.195213 -0.09761,0.512434 0,0.463631 0.390426,0.683246 0.414828,0.219614 1.439696,0.219614 h 1.952129 q 2.244949,0 3.416227,0.732049 1.195679,0.707647 1.195679,2.342549 0,0.95167 -0.488032,1.73252 -0.463631,0.80525 -1.342089,1.36649 -0.878458,0.58564 -2.122941,0.90286 -1.244483,0.34162 -2.806186,0.34162 -1.073671,0 -2.000933,-0.19521 -0.90286,-0.17081 -1.610507,-0.53684 -0.683245,-0.36602 -1.073671,-0.95166 -0.390426,-0.58564 -0.390426,-1.39089 z m 5.343955,-8.076938 q 0.707647,0 1.171277,-0.488032 0.488033,-0.512434 0.488033,-1.537302 0,-0.951663 -0.488033,-1.439695 -0.46363,-0.512434 -1.171277,-0.512434 -0.707647,0 -1.19568,0.488032 -0.46363,0.488032 -0.46363,1.464097 0,1.024868 0.46363,1.537302 0.488033,0.488032 1.19568,0.488032 z"
         style="font-style:normal;font-variant:normal;font-weight:bold;font-stretch:normal;font-size:24.40161896px;line-height:1.25;font-family:'Source Sans Pro';-inkscape-font-specification:'Source Sans Pro Bold';text-align:center;text-anchor:middle;stroke-width:0.13672043px;stroke:#ffffff;fill:#ffffff"
         id="path836"
         inkscape:connector-curvature="0" />
      <path
         d="m 56.271932,93.487209 q 0,-1.464097 0.488032,-2.635375 0.488033,-1.195679 1.268884,-2.000932 0.805254,-0.829655 1.830122,-1.268885 1.024868,-0.439229 2.122941,-0.439229 1.293286,0 2.244949,0.439229 0.976064,0.43923 1.610507,1.220081 0.658843,0.780852 0.976064,1.854523 0.317221,1.04927 0.317221,2.293753 0,0.488032 -0.0488,0.90286 -0.0488,0.390425 -0.09761,0.61004 h -7.247281 q 0.244016,1.390892 1.073671,2.025334 0.854057,0.610041 2.074138,0.610041 1.293285,0 2.610973,-0.805254 l 1.195679,2.171744 q -0.927261,0.634443 -2.074137,1.000467 -1.122475,0.366024 -2.220548,0.366024 -1.293286,0 -2.41576,-0.414827 -1.122474,-0.43923 -1.95213,-1.244483 -0.829655,-0.829655 -1.293285,-2.000933 -0.463631,-1.171277 -0.46363,-2.684178 z m 7.808518,-1.244482 q 0,-1.04927 -0.463631,-1.708114 -0.463631,-0.658843 -1.561703,-0.658843 -0.854057,0 -1.512901,0.585638 -0.634442,0.561238 -0.829655,1.781319 z"
         style="font-style:normal;font-variant:normal;font-weight:bold;font-stretch:normal;font-size:24.40161896px;line-height:1.25;font-family:'Source Sans Pro';-inkscape-font-specification:'Source Sans Pro Bold';text-align:center;text-anchor:middle;stroke-width:0.13672043px;stroke:#ffffff;fill:#ffffff"
         id="path838"
         inkscape:connector-curvature="0" />
      <path
         d="m 69.609321,87.435608 h 2.928194 l 0.244016,2.122941 h 0.09761 q 0.658844,-1.244483 1.586106,-1.830122 0.927261,-0.585639 1.854523,-0.585639 0.512434,0 0.829655,0.07321 0.341622,0.0488 0.61004,0.170811 L 77.173822,90.48581 Q 76.8322,90.388204 76.53938,90.3394 q -0.292819,-0.0488 -0.683245,-0.0488 -0.683245,0 -1.439696,0.488033 -0.732048,0.488032 -1.22008,1.732514 v 7.027667 h -3.587038 z"
         style="font-style:normal;font-variant:normal;font-weight:bold;font-stretch:normal;font-size:24.40161896px;line-height:1.25;font-family:'Source Sans Pro';-inkscape-font-specification:'Source Sans Pro Bold';text-align:center;text-anchor:middle;stroke-width:0.13672043px;stroke:#ffffff;fill:#ffffff"
         id="path840"
         inkscape:connector-curvature="0" />
    </g>
    <rect
       style="opacity:1;vector-effect:none;fill:#ff0000;fill-opacity:1;stroke:none;stroke-width:1.26710141;stroke-linecap:butt;stroke-linejoin:miter;stroke-miterlimit:4;stroke-dasharray:none;stroke-dashoffset:0;stroke-opacity:1"
       id="rect5425"
       width="3"
       height="3"
       x="80.691956"
       y="101.69995"
       ry="0" />
    <path
       style="fill:none;stroke:#ffffff;stroke-width:3;stroke-linecap:butt;stroke-linejoin:miter;stroke-miterlimit:4;stroke-dasharray:none;stroke-opacity:1"
       d="M 82.191954,99.468929 V 82.630948 H 32.212552"
       id="path828"
       inkscape:connector-curvature="0"
       sodipodi:nodetypes="ccc" />
    <path
       style="fill:none;stroke:#ffffff;stroke-width:3;stroke-linecap:butt;stroke-linejoin:miter;stroke-miterlimit:4;stroke-dasharray:none;stroke-opacity:1"
       d="M 19.923526,81.038073 V 103.19995 H 38.632393"
       id="path830"
       inkscape:connector-curvature="0"
       sodipodi:nodetypes="ccc" />
  </g>
</svg>
