<?xml version="1.0" encoding="UTF-8" standalone="no"?>
<!-- Created with Inkscape (http://www.inkscape.org/) -->

<svg
   xmlns:dc="http://purl.org/dc/elements/1.1/"
   xmlns:cc="http://creativecommons.org/ns#"
   xmlns:rdf="http://www.w3.org/1999/02/22-rdf-syntax-ns#"
   xmlns:svg="http://www.w3.org/2000/svg"
   xmlns="http://www.w3.org/2000/svg"
   xmlns:sodipodi="http://sodipodi.sourceforge.net/DTD/sodipodi-0.dtd"
   xmlns:inkscape="http://www.inkscape.org/namespaces/inkscape"
   width="201.25163mm"
   height="85.790474mm"
   viewBox="0 0 201.25163 85.790474"
   version="1.1"
   id="svg8"
   inkscape:version="0.92.4 (5da689c313, 2019-01-14)"
   sodipodi:docname="mouse.svg">
  <defs
     id="defs2" />
  <sodipodi:namedview
     id="base"
     pagecolor="#ffffff"
     bordercolor="#666666"
     borderopacity="1.0"
     inkscape:pageopacity="0.0"
     inkscape:pageshadow="2"
     inkscape:zoom="1.4"
     inkscape:cx="236.38805"
     inkscape:cy="125.66175"
     inkscape:document-units="mm"
     inkscape:current-layer="layer1"
     showgrid="false"
     inkscape:window-width="1920"
     inkscape:window-height="1027"
     inkscape:window-x="-8"
     inkscape:window-y="22"
     inkscape:window-maximized="1" />
  <metadata
     id="metadata5">
    <rdf:RDF>
      <cc:Work
         rdf:about="">
        <dc:format>image/svg+xml</dc:format>
        <dc:type
           rdf:resource="http://purl.org/dc/dcmitype/StillImage" />
        <dc:title />
      </cc:Work>
    </rdf:RDF>
  </metadata>
  <g
     inkscape:label="Layer 1"
     inkscape:groupmode="layer"
     id="layer1"
     transform="translate(-0.12089942,-0.07146177)">
    <path
       style="fill:#000000;stroke-width:0.06159483"
       d="m 139.65182,85.797916 c 0.0283,-0.483501 0.3808,0.383729 0,0 z M 5.1004336,72.863467 c 0.1776517,-0.117246 0.1434502,0.211584 0,0 z M 44.530868,72.127964 c -1.468992,-0.827619 -1.59631,-2.762862 -0.810052,-4.126856 0.764243,-2.272161 2.226992,-4.198413 3.654053,-6.072376 1.270135,-0.728008 2.880397,-0.261185 4.196418,-1.374486 5.53514,-2.534946 11.155251,-4.929689 17.031392,-6.567863 2.527488,-0.714645 5.085246,-1.478951 7.691544,-1.784802 -2.893893,0.638551 -5.779302,1.35625 -8.619829,2.225526 1.663053,-0.186279 3.714631,-1.04849 5.568808,-1.331987 10.163299,-2.300869 20.685621,-2.86027 31.068578,-2.153892 2.50496,0.211308 4.98683,0.70908 7.47745,0.965522 -0.804,-0.403486 -3.77385,-0.460473 -3.67023,-0.700066 2.55326,0.262939 5.07774,0.711556 7.61866,1.046298 1.92412,-0.0025 3.84831,0.666327 5.71538,1.153283 3.6312,1.058488 7.12426,2.84907 9.78944,5.538931 1.0534,1.49984 2.67425,3.297371 1.49802,5.1956 -0.57508,1.002058 -2.24273,0.177569 -1.95845,-0.634131 -0.44045,1.851981 -1.31069,3.580309 -1.69363,5.445404 -0.73954,0.976616 -2.30335,-0.580315 -3.23148,-0.875938 0.13447,-2.435714 1.46,-4.624972 1.72221,-7.048753 0.22835,-0.58509 0.36456,-2.483201 -0.0716,-0.937584 -2.29196,-1.598759 -4.86448,-2.837748 -7.57935,-3.575054 -6.19168,-1.677109 -12.60588,-2.473683 -19.00606,-2.742276 -4.859558,-0.03556 -9.733167,-0.07035 -14.566895,0.478806 -4.842366,0.378019 -9.620359,1.325761 -14.33951,2.450624 -1.764357,0.463735 -3.463662,1.106771 -5.205544,1.618203 -2.228093,0.767632 -4.519017,1.349832 -6.667488,2.347772 -2.699965,1.105122 -5.396796,2.296341 -7.989692,3.596188 0.193063,1.794284 0.119938,3.716835 0.120524,5.563924 0.696494,1.853357 -2.007438,3.595608 -2.703343,1.330229 -0.664413,-1.668587 -0.499344,-3.615182 -0.220953,-5.345889 -0.529425,-0.235348 -1.641241,2.421148 -2.156951,3.309611 -0.655975,1.260595 -0.722539,3.647042 -2.66141,3.006032 z m 86.454412,-9.15165 c -0.13408,-0.738518 -0.17429,0.974879 0,0 z m 0.13725,-0.657328 c -0.16456,-0.633677 -0.14546,0.89122 0,0 z m -0.0357,-1.577848 c -0.34509,-0.896373 0.0889,0.930932 0,0 z m -0.83182,-1.414652 c -0.23434,-1.665505 -0.37206,1.233512 0,0 z m -1.01349,-0.790213 c -0.90013,-0.349517 0.41507,0.509518 0,0 z M 58.486454,57.800741 c -0.226861,-0.06994 -0.112997,0.107312 0,0 z M 122.80814,57.22201 c -0.45138,-0.258311 0.15278,0.242672 0,0 z m -0.27717,-0.123187 c -0.40338,-0.240542 -0.0629,0.242393 0,0 z m -0.27718,-0.123194 c -1.48791,-0.495189 -2.74187,-1.267501 -4.28699,-1.52505 -1.33978,-0.267321 -2.79026,-0.562363 -4.27469,-0.808583 -2.47527,-0.296552 0.90895,0.374882 1.59566,0.462273 2.32809,0.52278 4.64499,1.118957 6.89075,1.928988 l 0.0753,-0.05745 z m -61.410049,-0.09239 c 0.568335,-0.301921 -0.900668,0.293005 0,0 z m 61.040479,-0.277176 c -0.49624,-0.226944 0.23803,0.245266 0,0 z m -0.61595,-0.215579 c -0.68751,-0.3452 0.3871,0.329146 0,0 z m -58.884658,-0.09239 c 0.107172,-0.209501 -0.540442,0.217975 0,0 z m 58.022328,-0.15036 c -0.14394,-0.211613 -0.17725,0.117543 0,0 z M 64.816629,55.442407 c 0.665176,-0.164129 2.89602,-0.948686 0.92691,-0.421088 -0.2511,0.02861 -2.08652,0.773471 -0.92691,0.421088 z M 67.175188,54.7067 c 1.19914,-0.563751 -1.220759,0.323551 0,0 z m 45.285042,-0.182086 c -0.716,-0.420046 -2.84732,-0.292077 -0.84962,-0.104385 0.27191,0.01071 0.59646,0.254482 0.84962,0.104385 z m -2.04779,-0.336152 c -0.99168,-0.471015 -0.75325,0.266763 0,0 z m -0.90875,-0.163181 c -0.88415,-0.385481 -0.96379,0.286585 0,0 z m -1.07791,-0.0655 c -0.20192,-0.444199 -1.44299,0.07239 0,0 z m -1.04685,-0.125914 c -0.65618,-0.493778 -1.11192,0.144015 0,0 z m -1.04849,-0.120946 c -0.63365,-0.516283 -1.06908,0.224969 0,0 z m -1.01521,-0.118408 c -0.57233,-0.393374 -1.20948,0.194981 0,0 z m -0.98873,-0.06486 c -0.55372,-0.444187 -1.02758,0.225266 0,0 z m -1.0439,-0.06683 c -0.6996,-0.40583 -0.76633,0.243937 0,0 z m -0.89683,-0.05369 c -1.14469,-0.605555 -0.94636,0.27161 0,0 z m -1.12712,-0.06761 c -0.36032,-0.353808 -1.00433,0.116297 0,0 z m -3.073022,-0.163982 c -0.33923,-0.09994 -0.06152,0.107778 0,0 z m 0.95344,0.0035 c -0.226757,-0.07001 -0.113131,0.107323 0,0 z m 18.355262,-0.307978 c -0.22678,-0.06993 -0.11312,0.107311 0,0 z m -0.47608,-0.431917 c -0.32583,-0.105705 -0.32489,0.189835 0,0 z m -4.7428,-0.516375 c -0.63157,-0.205062 -0.16304,0.10676 0,0 z M 21.189156,71.839698 c -1.869036,-0.474753 -2.163358,-2.950083 -2.441468,-4.642524 -0.04413,-1.467827 -0.286585,-2.968357 -0.302685,-4.413059 0.146186,-1.84419 2.401192,-1.90909 3.037667,-0.359399 0.824953,2.499783 0.571815,5.162805 1.062847,7.718878 -0.04782,0.730698 -0.381245,1.968073 -1.356361,1.696104 z M 132.45469,70.945546 c -0.48145,-0.494901 -0.74967,-1.423137 -0.89402,-0.54223 -1.4274,-0.822894 -0.2389,-2.707519 0.34766,-3.777565 0.84635,-1.486487 1.35677,-3.099275 1.64694,-4.774713 0.71123,-0.814206 0.39832,1.821021 1.47647,2.115622 0.72999,0.907587 1.10445,0.99338 0.3554,-0.131176 -0.60835,-0.591121 -1.61086,-1.988008 -0.33001,-0.698483 -0.49247,-0.61871 -1.71171,-3.039337 -0.38383,-1.309379 1.21279,1.278199 -0.47349,-0.834903 -0.6504,-1.130206 1.69225,-1.296719 3.16389,1.428525 4.47185,2.345091 1.62693,1.587493 3.21737,3.234431 4.61773,5.026014 0.50822,0.872027 -0.60768,0.93976 0.3114,1.797988 -0.73223,0.291841 -0.96384,0.860184 -1.62072,-2.2e-4 0.48808,1.330534 -1.54265,-0.770003 -1.91488,-1.167339 -1.26956,-1.167734 -2.42353,-2.490661 -3.80898,-3.531157 -0.32817,1.926199 -1.51771,3.626603 -2.2094,5.442567 -0.97707,0.714201 -0.63075,-0.430473 -1.41521,0.335186 z m -1.17577,-1.278991 c -0.34513,-0.180887 -0.0827,0.489572 0,0 z m 7.85188,-1.873478 c -0.32515,-0.480316 -0.12677,0.159202 0,0 z m -4.0251,-6.166466 c -0.0889,-0.902259 -1.34133,-1.565169 -0.38801,-0.329609 -0.19343,-0.246616 0.61856,0.707235 0.38801,0.329609 z m -2.93512,9.269468 c 0.15739,-0.220851 0.15739,0.220851 0,0 z m -5.16308,-1.265948 c 0.23483,-0.333638 0.1512,0.33864 0,0 z m 0.34328,-0.158206 c -1.13284,-1.125013 2.21496,0.677514 0,-1.1e-5 z M 38.608024,68.370684 c -0.856839,-0.526375 -1.93853,-1.108301 -1.293012,-2.416171 0.06056,-1.457754 2.14319,-2.172527 3.110076,-3.220829 0.875907,-0.570395 1.56186,-1.072832 0.510232,-1.900962 -0.318877,-0.98252 0.65126,-2.670391 -0.781843,-2.433192 -0.678562,-2.140418 2.126235,-2.964713 3.720942,-2.313126 1.390483,0.685211 2.427826,-1.827972 3.972867,-1.934977 1.384172,-0.485193 3.00077,-1.871982 4.434829,-0.999471 1.087538,0.408423 1.187018,1.757058 0.938786,2.721396 -1.293928,1.40981 -3.171994,2.100625 -4.691613,3.238088 -1.063148,1.308615 -2.592919,0.207583 -3.609522,0.90257 1.495742,0.291599 2.638426,2.247806 0.840599,3.244213 -2.106064,1.704837 -4.284225,3.328456 -6.384718,5.033131 -0.166422,-0.002 -0.746019,0.427961 -0.767623,0.07933 z m -0.750445,-1.185693 c -0.277473,-0.597467 -0.477644,0.674034 0,0 z M 14.35832,66.833934 c -1.286312,-0.292226 -1.298965,-2.525704 -0.845374,-3.641219 0.764344,-1.515314 1.483492,-3.514969 3.281748,-4.011986 1.841982,0.598567 1.5228,2.779452 0.399176,3.962294 -0.96051,1.072632 -1.124663,3.814346 -2.83555,3.690911 z m 22.740631,-0.68066 c 0.07652,-0.242712 0.220994,0.234385 0,0 z M 5.6547868,61.901911 C 6.658422,61.099397 4.1627536,62.126447 4.7800432,61.142964 2.958807,61.265762 3.9077878,59.196668 5.1014821,58.922747 c 2.461015,-1.362481 5.1623159,-2.42019 7.9446779,-2.924548 1.346798,-0.207186 3.519659,2.04314 1.840912,2.97402 -1.069552,0.927328 -2.833011,1.343824 -4.238213,1.715896 -1.257599,0.583935 -3.2356083,0.663766 -4.6834974,1.294097 -0.071616,0.03678 -0.3298765,0.09543 -0.3105748,-0.0803 z M 28.581352,60.348569 c 1.768726,-0.559407 -1.521297,-0.230268 -2.24229,-0.511365 -0.417651,0.08405 2.615541,0.494198 0.698767,0.413743 -2.511798,-0.298691 -5.091803,-0.867179 -7.184266,-2.351444 -1.403163,-1.124982 -2.800911,-2.469435 -4.139888,-3.757287 -0.818127,-0.716761 -2.124551,-2.220159 -1.585831,-2.388072 -0.914072,-0.837947 0.03434,-1.833226 -0.151058,-2.439672 -1.84696,-1.525283 1.293247,-2.818333 2.553787,-3.418935 1.964407,-1.201553 3.780285,-2.656895 5.953033,-3.468983 2.395261,-1.466627 4.471294,-3.348842 6.850426,-4.849016 1.43583,-0.990351 2.11671,-2.008293 3.877363,-2.160099 0.447434,-1.456419 1.928663,-2.262064 3.290163,-3.13324 1.386453,-1.012497 3.368641,-1.869388 4.850002,-0.517136 0.254906,1.828659 -2.019827,2.241216 -3.112424,3.216347 -2.963816,1.729969 -5.716938,3.820951 -8.808852,5.32627 -2.353011,1.457886 -4.507228,3.234616 -6.781218,4.78813 -0.997262,1.231827 -2.765625,1.841305 -3.979757,2.943067 -1.17478,0.664576 -3.74788,1.99592 -2.112221,3.429439 2.10806,2.001373 4.084521,4.431616 7.020662,5.19185 1.512812,1.016578 4.338046,0.562582 3.291961,-1.716296 -0.186203,-2.747483 3.446447,-2.111421 3.980641,-0.04804 0.67671,1.12326 0.155104,3.204416 2.113602,2.3408 1.527516,0.233576 3.268681,-0.577848 4.904946,-0.692108 0.688617,-0.220871 2.898894,0.198923 1.012852,0.433899 -0.87566,0.01172 -4.542628,1.306172 -1.995613,0.67724 1.42935,-0.360179 1.041676,0.222828 2.168149,0.266106 -1.047945,0.57247 -0.68213,0.240042 -2.125258,0.657022 -0.677414,0.8698 -3.12374,0.778721 -4.480477,1.167454 -1.21837,0.05246 -0.494918,0.623228 0.363425,0.395379 -1.368619,0.238678 -2.859511,0.352215 -4.230626,0.204945 z m 3.012503,-0.248019 c -0.204733,-0.159456 0.194775,0.33607 0,0 z m -0.429911,-0.06564 c 1.379283,-0.632298 -2.86733,0.1808 -0.459759,0.06401 l 0.220795,-0.01491 0.238963,-0.04918 z m -5.13795,-0.201496 c -0.22677,-0.06995 -0.113147,0.10731 0,0 z m 3.958752,-0.02804 c -0.535639,-0.720162 -1.723887,0.41546 0,0 z m -1.139234,-0.0584 c -0.573662,-0.506725 -1.70927,0.299068 0,0 z m -0.277446,-0.43073 c -0.451917,-0.198696 0.15681,0.248203 0,0 z m 0.341855,-0.497745 c 0.978936,-0.331888 -1.194007,-0.353696 0,0 z m 6.649157,-0.857341 c -0.10752,-0.203898 -0.460525,0.25282 0,0 z m 2.340605,-0.123194 c -0.07652,-0.242712 -0.220994,0.234385 0,0 z M 33.387861,57.36601 c -0.339196,-0.09995 -0.06156,0.107781 0,0 z M 21.731039,45.826976 c -0.151903,-0.2193 -0.0745,0.225084 0,0 z m 4.361326,-3.6472 c 0.847483,-0.375513 2.310369,-1.841521 0.792073,-0.783596 -0.173416,0.04722 -1.927653,1.268547 -0.792073,0.783596 z M 25.39593,41.576933 c -0.0745,-0.225084 -0.151903,0.2193 0,0 z m 0.646747,-0.431165 c -0.0745,-0.225084 -0.151903,0.2193 0,0 z m 0.845884,-0.595907 c 1.023847,-1.084426 -2.184222,1.492336 0,0 z m 1.345017,-0.08163 c -0.05869,-0.257723 -0.43352,0.494273 0,0 z M 132.27321,56.498288 c -0.26667,-1.313536 -0.5139,-0.563816 -0.24682,0.164153 -0.88478,-0.12733 -1.18877,-1.520239 -1.30329,-2.372586 0.0849,-4.390637 0.32483,-8.800291 -0.2941,-13.168685 -0.49511,-4.428574 -1.80337,-8.775102 -4.16939,-12.570476 -2.42998,-4.254648 -6.21224,-7.475355 -9.77952,-10.745652 -1.33459,-1.2568 -3.01648,-2.041827 -4.42908,-3.20773 -4.00295,-2.52222 -8.56919,-4.257979 -13.331976,-4.44236 -3.064508,-0.124057 -6.171846,0.03773 -9.175965,0.653335 -2.822113,0.827607 -5.722467,1.463432 -8.363886,2.810621 -1.349564,0.681576 -2.955309,1.147876 -4.224896,1.746865 C 75.449022,15.096406 75.80887,13.075481 76.645001,12.344098 78.981345,10.116752 82.2917,9.4726412 85.267883,8.4879995 91.047521,6.8433372 97.249284,6.3482607 103.14995,7.630008 c 4.18621,0.9715982 8.05295,2.972591 11.51678,5.477244 3.26359,2.277384 6.22704,4.965927 9.07507,7.741786 2.21428,1.72568 3.70503,4.208599 5.24776,6.523113 1.07831,1.970512 2.09673,3.99753 2.79396,6.12808 0.31557,0.976255 2.36538,1.987019 3.6407,2.132695 3.78344,0.394798 8.05419,0.239116 10.99833,-2.49454 4.00745,-3.291151 7.98064,-6.684409 11.30415,-10.686399 1.44623,-1.638522 2.95688,-3.228757 4.66802,-4.589123 0.0177,0.560306 -0.33565,0.490788 0.0888,0.81723 -0.0388,0.80998 -1.02848,2.517224 -0.7617,2.714713 1.39612,-0.05303 0.92331,-1.401963 1.83947,-2.379088 -0.4216,-0.400156 -1.418,0.273874 -0.51484,-0.779044 0.92577,-1.360367 2.85062,-1.605543 3.7982,-2.760487 2.01888,-0.76474 4.15242,-1.175979 6.07928,-2.236126 3.12689,-1.282844 6.36372,-2.575749 9.78578,-2.655131 0.63058,-0.221146 2.74832,-0.8776072 2.61661,-0.636638 -0.70537,0.182603 -2.11971,0.823836 -0.52285,0.399871 1.99111,-0.5942088 4.01178,-1.078148 6.08047,-1.3278822 -0.76417,-0.1158506 -1.63422,-0.1253984 -0.22629,-0.266548 2.80285,-0.3686713 5.69555,-0.5490656 8.48762,-0.00818 -0.0948,-0.1267915 -0.97112,-0.5523065 0.34857,-0.091236 1.14,0.1632377 2.59078,0.955969 0.84512,1.280969 -0.8862,-0.29876 -0.0841,0.6670634 -1.28946,0.8136314 -1.36124,0.549035 -3.35152,-0.105853 -4.95086,0.21255 -2.33234,0.07042 -4.61501,0.560259 -6.88884,1.026367 1.4328,-0.570554 3.54099,-0.872618 5.26225,-1.05802 0.78323,-0.212257 3.11722,0.01029 2.95656,-0.385689 -3.63679,-0.262925 -7.31998,0.585788 -10.7329,1.810656 -0.79614,0.652729 3.39242,-0.77702 1.23754,0.03232 -1.91796,0.817557 -3.71583,1.445574 -5.79948,1.878244 -4.67615,1.230878 -8.95754,3.544105 -13.42452,5.332845 -0.90698,0.134021 -2.52695,1.622717 -3.06479,1.205042 0.41276,-1.375696 -0.72453,0.359214 -0.81641,0.867355 -1.1759,1.148404 -2.0466,2.38527 -3.15278,3.560731 -3.11415,3.70874 -6.72242,6.933665 -10.32094,10.15204 -1.77894,1.530784 -3.63875,3.137844 -6.03691,3.528935 -2.6983,0.604646 -5.49667,0.571677 -8.24429,0.474336 -0.89136,-0.119829 -2.22055,-0.82118 -0.52127,-0.304399 1.07731,0.391386 1.53259,0.03806 0.17501,-0.153708 -0.67673,0.06157 -3.08106,-1.553387 -2.57159,-0.945884 1.80484,0.739827 1.25209,3.006837 1.74004,4.532478 0.90873,0.943965 2.57528,1.809167 3.9746,2.194147 3.63117,0.357076 7.58967,-0.200902 10.4555,-2.641244 4.30362,-3.611906 7.49326,-8.32638 10.17242,-13.208876 1.94749,-3.064831 4.12302,-6.066222 7.01215,-8.311617 3.34154,-1.627984 6.79867,-2.979775 10.17986,-4.515695 0.9923,-0.368652 3.82081,-1.496305 3.86244,-1.101571 -5.85249,2.658881 -10.92324,6.858343 -15.1059,11.710136 -2.52594,2.418106 -3.99802,5.628098 -5.77481,8.578427 -2.05506,2.956964 -4.09981,5.943777 -6.78385,8.373617 -1.44875,1.459437 -3.16061,2.858621 -5.18067,3.37177 -1.89247,1.008563 -4.10505,1.096419 -6.19175,1.357046 -1.0122,0.209665 -1.87931,0.05413 -1.943,-1.01661 -0.4692,-0.151947 -3.00112,-1.033006 -2.18238,-0.465494 0.99707,0.125224 1.39227,0.448679 0.15395,0.260717 0.58792,0.295741 3.12989,1.597753 1.08516,1.07989 -1.06203,0.05526 -2.68295,-0.274884 -3.66326,0.343411 -0.11153,2.115584 -0.19517,4.234023 -0.34879,6.348047 -0.65734,-0.263397 0.10953,1.662151 -0.96115,1.61188 -0.19375,0.04116 -0.13201,0.551156 -0.38268,0.01518 z m -0.50152,-1.242651 c -0.38947,-0.50113 0.0788,0.570968 0,0 z m 1.22876,-6.796394 c -0.0196,-1.383517 -1.08106,-0.319299 -0.25743,0.14605 l 0.25727,-0.146043 z m 5.63759,-1.441716 c -0.26888,-0.630848 -0.54608,0.02399 0,0 z m -3.11054,-0.143433 c -0.15541,-0.23624 -0.26401,0.200221 0,0 z m 2.30492,-0.839091 c -0.78712,-0.888654 -3.7645,-1.890631 -3.92089,-1.041434 1.32756,-0.37998 3.37468,0.854916 3.92089,1.041434 z m -5.56692,-0.173779 c 0.2633,-0.824192 -0.45391,0.0018 -0.0957,0.191745 l 0.0957,-0.191745 z m 15.86705,-0.788779 c 0.42693,-0.622887 -1.44016,1.195996 0,0 z m -14.70367,-0.389372 c 0.16334,-1.233407 -0.86583,-0.04566 0,0 z m -1.76719,-7.213926 c -0.69781,-0.243523 0.39402,0.377325 0,0 z m -0.66141,-0.87626 c -0.37045,-0.591381 -1.20809,-2.58952 -0.70722,-0.670233 0.0844,0.10513 0.60762,1.322935 0.70722,0.670233 z M 127.74339,26.28499 c -0.20478,-0.159479 0.19476,0.336117 0,0 z m -0.0692,-0.168353 c -0.152,-0.219389 -0.0741,0.225074 0,0 z m -0.18478,-0.395641 c -0.43418,-0.750608 -1.94226,-2.940896 -1.98592,-2.612024 0.71779,0.747705 1.35779,2.098782 1.98592,2.612024 z m -2.27149,-3.095251 c -0.21729,-0.267711 0.12371,0.460611 0,0 z m -0.19047,-0.262966 c -0.43777,-0.545726 0.1877,0.457521 0,0 z m -0.34913,-0.465397 c -0.33841,-0.389716 -0.046,0.371929 0,0 z m -0.48423,-0.52355 c -0.32619,-0.225045 0.069,0.212289 0,0 z m -0.0924,-0.181151 c -0.12156,-0.330122 -0.16373,0.217942 0,0 z m 36.73618,-1.336744 c -0.0346,-0.579723 -0.28169,0.484866 0,0 z m 1.14668,-1.161483 c 0.20313,-0.36572 -0.3745,0.483597 0,0 z m 5.15241,-3.183693 c -0.11393,-0.125528 0.0618,0.360621 0,0 z m 0.60875,-0.113046 c 1.507,-0.771821 -1.50806,0.41417 0,0 z m 16.37616,-2.887099 c -0.33935,-0.554514 -0.27382,0.288572 0,0 z m 0.46595,-1.238027 c 3.44704,-1.013629 7.01666,-1.628737 10.59431,-1.8420014 -2.0289,-0.06958 2.23839,-0.2939817 0.0737,-0.4660067 -1.75981,0.08866 -3.4451,0.4508878 -5.17578,0.6985022 -2.18341,0.2215523 -4.27205,0.9958499 -6.382,1.5747589 -0.52851,0.438795 0.78153,0.124168 0.88974,0.03475 z m 9.45481,-1.9097624 c 0.25724,-0.2131466 0.0618,0.216829 0,0 z m 4.09605,1.2934894 c -0.42642,-0.276211 -0.14228,0.239731 0,0 z m -14.35338,-0.05917 c 0.11974,-0.367598 -0.86062,0.239543 0,0 z m 14.07621,-1.0453164 c -0.78035,-0.2604551 -3.85306,-0.082196 -1.42106,-0.030068 0.4276,-0.015495 1.12679,0.1737575 1.42106,0.030068 z m 1.47325,-0.0577 c -0.7145,-0.3605012 -1.88913,-0.3241261 -0.41097,0.019497 l 0.27184,0.023427 0.13913,-0.042921 z m -1.73386,-0.356504 c -0.35547,-0.046909 -0.15026,0.088334 0,0 z m -6.11446,-0.26757 c -0.14187,-0.2135233 -0.22447,0.2369044 0,0 z m 0.73401,-0.0395 c -0.5562,-0.1056888 -0.74704,0.1980458 0,0 z m 0.55948,-0.02207 c -0.15197,-0.2192933 -0.0744,0.2252027 0,0 z M 76.48886,52.109651 c 0.499621,-0.212149 0.325975,0.135307 -0.04237,0.04761 z m 38.73161,-0.103671 c 0.3444,-0.05303 -0.10611,0.105595 0,0 z M 78.429101,51.740083 c 1.087222,-0.244616 0.699311,0.209974 0,0 z m 35.001269,0.0208 c 0.33923,-0.09994 0.0615,0.107778 0,0 z m -0.63135,-0.08239 c -0.27544,-0.22032 0.57373,0.16251 0,0 z M 80.538721,51.452927 c 0.339199,-0.09995 0.06156,0.107781 0,0 z m 30.028659,-0.186681 c 0.50656,-0.07618 -0.0719,0.105005 0,0 z m -0.67755,-0.123187 c 0.50669,-0.07606 -0.0721,0.104923 0,0 z m -75.377862,-0.08241 c -1.772804,-0.180324 -3.841355,-0.726696 -4.535078,-2.575471 -1.574108,-2.04301 -0.92036,-5.035131 0.823848,-6.752118 1.605339,-1.615297 4.328309,-2.589509 6.439014,-1.386053 0.180579,0.397502 0.209665,1.354218 0.307598,1.524655 -2.238347,0.692458 -4.624662,2.071149 -5.066998,4.589293 0.277278,2.142271 3.172354,1.73257 4.770168,1.559164 2.082418,-0.26684 4.398823,-1.835173 4.471988,-4.100956 -0.975959,-1.464272 -2.989714,-1.945152 -3.710388,-3.688646 -0.324876,-0.939554 0.881945,-1.1968 1.72533,-0.548172 0.673156,0.446558 2.544703,1.25077 0.885251,0.267757 0.737537,0.04236 3.508304,1.353091 4.045126,2.978534 0.562125,0.914389 0.722578,2.162768 0.34695,3.160459 -0.742278,1.756354 -2.29903,3.121303 -4.099806,3.701106 -0.453842,1.011661 -2.017831,1.201351 -3.163462,1.132699 -1.082844,-0.0012 -2.159718,0.277457 -3.239541,0.137749 z m 4.465625,-0.306095 c -0.0745,-0.225084 -0.151903,0.2193 0,0 z M 32.725717,50.50818 c -1.438845,-0.747873 -1.105686,-0.109638 0,0 z m 73.682823,0.267176 c 0.33923,-0.09994 0.0615,0.107778 0,0 z m -4.54262,-0.213043 c -2.311263,-0.167994 1.10486,-0.228089 0.98243,0.0083 -0.32632,0.03645 -0.65673,0.03299 -0.98243,-0.0083 z m 1.2319,0.0075 c 0.32277,-0.227011 0.32309,0.226913 0,0 z m -4.866002,-0.184784 c 1.11125,-0.252521 1.69302,0.228489 0,0 z m 1.52833,0.01954 c 0.344392,-0.05315 -0.105987,0.105697 0,0 z m -4.099907,-0.06367 c 0.751715,-0.08983 0.148291,0.09086 0,0 z M 13.261749,46.38941 C 12.092453,45.564683 11.394453,45.794805 10.067498,44.621771 7.9391744,43.263197 5.5174325,42.456693 3.1694572,41.565573 1.6022403,41.014119 0.44454846,40.084744 0.26523869,38.595238 1.165409,37.368228 3.0232579,38.334259 4.2744036,38.557006 c 3.043996,0.85666 5.8304964,2.498364 8.3744664,4.344142 0.998285,0.272604 2.617402,3.064763 0.810128,2.75053 -0.186108,0.106413 0.275326,1.01607 -0.197249,0.737732 z m 1.82345,-2.55392 c -0.206253,-0.42126 -0.528909,-0.0017 -0.964345,-0.365102 -0.6708,0.0348 -0.334777,-2.092725 -0.947546,-0.932653 -0.231213,-2.400261 -0.819794,-4.76661 -1.858009,-6.952899 -0.410798,-1.471469 -1.258898,-3.621345 0.165851,-4.758395 0.98886,-0.941611 2.034925,1.989571 2.431838,3.051075 1.121233,2.831168 2.397783,5.786266 2.056067,8.909286 0.01683,0.325497 -0.635446,1.442424 -0.883856,1.048688 z m 4.182045,-1.615459 c 0.09385,-0.236609 0.158664,0.311864 0,0 z m -0.257555,-0.502587 c -1.821338,-0.302759 -1.743312,-2.882207 -2.096676,-4.372282 -0.238872,-2.211206 -0.650767,-4.549608 0.01363,-6.713441 0.646984,-0.73191 1.505999,-1.944792 2.296179,-0.85372 1.727041,0.781373 -0.09037,3.017839 0.54867,4.494569 0.157063,2.195357 0.387089,4.412859 0.539099,6.589472 -0.108206,0.602209 -0.646313,1.173532 -1.300901,0.855402 z m 21.015017,-2.049963 c -1.303197,-0.473845 0.151103,-0.335759 0.24658,0.113876 l -0.24658,-0.11396 z M 39.073612,39.20356 c -0.25815,-0.340602 0.55367,0.357949 0,0 z m 47.578384,-3.543374 c 0.177324,-0.117479 0.143623,0.211537 0,0 z M 67.518298,34.981923 c -0.908347,-0.106191 -0.987676,-1.004707 -1.086898,-1.460056 -0.681057,-1.934189 1.790337,-3.058449 2.746309,-4.424927 1.820904,-2.174159 3.994694,-4.796735 3.343843,-7.838626 -0.944915,-4.491786 -4.498239,-7.832877 -8.088544,-10.410788 -1.603891,-1.221355 -3.608106,-1.9500491 -4.849722,-3.5916057 -0.829033,1.2571002 -1.102437,3.2714937 -2.078055,4.6467937 -0.78887,1.367363 -1.153833,2.938597 -2.820956,3.243248 -0.938617,0.356373 -2.080446,2.451012 -0.407299,0.953036 0.946575,-0.986248 1.037428,-0.484497 0.351007,0.274055 0.174627,0.132576 1.282563,-0.742315 0.493241,0.333992 -0.01737,0.433459 1.491926,-1.358954 0.860887,0.153152 1.08739,1.071318 -0.750581,2.426898 -1.022827,3.897084 -0.476368,2.300132 -0.646667,4.667492 -0.952924,6.998476 0.102071,1.756568 -0.572215,3.29281 -0.707326,4.978348 -0.423745,-0.12449 -0.590094,-1.036788 -0.531717,0.228084 -0.777102,1.400638 -2.362616,-1.11434 -1.933166,-2.264967 -0.432509,-3.162284 0.511062,-6.294168 0.722725,-9.425959 -1.181609,1.092173 -2.323363,2.628416 -3.307699,4.021385 -0.79315,1.241592 -2.104469,2.959287 -3.666095,2.44648 -0.816338,-0.507681 -0.902366,-1.307926 -0.756785,-2.241617 0.507406,-1.691733 1.938097,-3.010664 2.873366,-4.504722 2.179367,-2.497611 3.947871,-5.327922 5.881337,-8.006774 1.541037,-2.530615 3.490406,-5.1558764 3.262582,-8.2831795 0.183357,-1.3063228 1.074289,-0.053036 1.82416,-1.1422548 0.560248,0.6601516 1.680474,2.2812246 1.848371,1.0708735 1.834591,-0.323863 3.040222,1.4731027 4.643374,2.0936896 3.891419,2.5411893 7.676094,5.5801252 9.989326,9.6902652 1.320901,1.685665 2.032373,3.820734 2.253727,5.936613 0.326814,3.164048 -1.437822,6.038217 -3.369734,8.378397 -1.499447,1.45972 -2.919221,3.101367 -4.754387,4.113812 -0.109046,0.250692 -0.571782,0.3355 -0.760121,0.137692 z M 52.317181,18.939308 c 0.412521,-0.576995 0.850683,-1.158001 0.803937,-1.753939 -0.595256,-0.07464 -1.608148,2.571997 -0.803937,1.753939 z m 1.96673,-2.00032 c -0.07461,-0.225069 -0.151886,0.219286 0,0 z M 59.67422,7.0852216 c -0.60103,-0.8142482 -0.0053,0.4467481 0,0 z M 86.361151,35.032472 c -0.444234,-0.702234 0.5488,0.292389 0,0 z M 31.099615,34.593331 c -0.594922,-0.121723 -1.374554,-1.107445 -1.324885,-0.213914 -1.562702,-0.93134 -3.046369,-2.056894 -4.072518,-3.612442 -1.300266,-2.327708 -1.533667,-5.131217 -1.345358,-7.749422 0.221918,-3.038704 1.804296,-5.759109 3.676269,-8.078225 1.195544,-1.252769 2.598393,-2.27319 3.907578,-3.426883 1.282315,-1.352334 3.286608,-1.8928674 4.571049,-3.0440094 2.213311,-0.7931404 4.434826,0.5640583 6.538675,1.1515551 2.151834,0.8600103 4.43477,1.3290493 6.555508,2.2681813 0.231901,0.522731 1.040327,1.429338 1.061167,1.763425 -0.493642,1.358467 -2.214043,0.950905 -3.468745,0.719384 -2.591314,-0.557725 -4.973146,-1.769369 -7.52912,-2.427151 -2.652959,-0.474291 -4.56431,1.799558 -6.441986,3.260457 -2.30685,2.342475 -4.555329,5.083771 -5.088401,8.423398 -0.08013,2.364142 0.183873,4.858347 1.285465,6.980295 0.650381,1.156361 2.403191,2.060527 2.84592,2.948733 -1.622974,-0.823843 0.01353,0.442331 0.12476,0.863853 -0.670444,-0.2178 -1.498675,-0.843593 -0.641143,0.176204 -0.58606,-0.101878 -0.533962,-0.0088 -0.654235,-0.0034 z M 19.482825,20.080326 c 0.371426,-0.229093 0.271661,0.254377 0,0 z M 162.69515,17.685117 c 0.57786,-1.088131 1.56929,-0.705009 0.25628,0.0029 l -0.1592,0.04079 -0.0971,-0.04365 z m 3.51253,-1.783602 c 0.28366,-0.506579 0.26643,0.146449 0,0 z M 24.277682,13.333034 c 0.05777,-0.483997 0.354682,0.30534 0,0 z M 199.30895,11.087478 c 0.2244,-0.23708 0.14191,0.213597 0,0 z m 0.49276,-0.303825 c 0.40232,-0.669547 1.5247,-0.0461 0,0 z M 185.81287,9.7361166 c 0.83586,-0.3474188 1.79257,-0.2700444 0.28399,0.013057 0.15501,-0.093033 -0.68753,0.2486335 -0.28399,-0.013057 z m 1.30031,-0.319398 c 0.87826,-0.3582151 2.9694,-0.5049776 0.83153,-0.073033 -0.2465,-0.00568 -0.60476,0.2742854 -0.83153,0.073033 z m 2.15582,-0.423471 c 0.32292,-0.2268417 0.32292,0.2268417 0,0 z M 68.727898,0.15438971 c 0.166934,-0.28610649 0.166934,0.28610649 0,0 z"
       id="path21"
       inkscape:connector-curvature="0" />
  </g>
</svg>
